<svg id="Layer_1" data-name="Layer 1" xmlns="http://www.w3.org/2000/svg" viewBox="0 0 739.463 605.97"><defs><style>@import url(https://fonts.googleapis.com/css?family=Libre+Baskerville:400,700);text{font-family:"Libre Baskerville",serif;}.cls-1,.cls-2,.cls-3,.cls-4,.cls-5,.cls-7{fill:none;}.cls-1,.cls-2,.cls-3{stroke:#ccc;}.cls-1,.cls-2,.cls-3,.cls-4,.cls-5,.cls-7,.cls-8{stroke-miterlimit:10;}.cls-1{stroke-dasharray:6;}.cls-3{stroke-dasharray:6.066 6.066;}.cls-4,.cls-8{stroke:#4ecdea;stroke-width:8px;}.cls-5,.cls-7{stroke:#000;}.cls-6{font-size:18px;}.cls-10,.cls-14,.cls-6,.cls-9{font-family:"Libre Baskerville",serif;}.cls-14,.cls-6,.cls-9{font-weight:700;}.cls-7{stroke-width:2px;}.cls-8{fill:#4ecdea;}.cls-14,.cls-9{font-size:16px;}.cls-11,.cls-12,.cls-9{letter-spacing:1px;}.cls-10{font-size:14px;}.cls-12{white-space:pre;}.cls-13,.cls-14{fill:#fff;}</style></defs><title>plot_diagram</title><line class="cls-1" x1="271.642" y1="520.393" x2="271.642" y2="192.893"/><line class="cls-2" x1="370.885" y1="520.393" x2="370.885" y2="517.393"/><line class="cls-3" x1="370.885" y1="511.327" x2="370.885" y2="198.926"/><line class="cls-2" x1="370.885" y1="195.893" x2="370.885" y2="192.893"/><line class="cls-2" x1="572.885" y1="520.393" x2="572.885" y2="517.393"/><line class="cls-3" x1="572.885" y1="511.327" x2="572.885" y2="198.926"/><line class="cls-2" x1="572.885" y1="195.893" x2="572.885" y2="192.893"/><line class="cls-1" x1="103.385" y1="520.393" x2="103.385" y2="192.893"/><line class="cls-1" x1="664.385" y1="520.643" x2="664.385" y2="193.143"/><line class="cls-1" x1="465.129" y1="520.393" x2="465.129" y2="192.893"/><path class="cls-4" d="M153.385,397.393h100c65,0,181.4-89.934,212.368-89.934,42.965,0,36.631,89.934,91.8,89.934h66.833"/><line class="cls-5" x1="505.885" y1="391.893" x2="505.885" y2="444.893"/><line class="cls-5" x1="455.885" y1="250.893" x2="455.885" y2="290.893"/><line class="cls-5" x1="590.885" y1="346.393" x2="590.885" y2="385.393"/><line class="cls-5" x1="324.885" y1="309.893" x2="324.885" y2="356.893"/><line class="cls-5" x1="200.885" y1="412.893" x2="200.885" y2="441.893"/><text class="cls-6" transform="translate(149.352 463.893)">Exposition</text><text class="cls-6" transform="translate(295.885 277.893)">Risin<tspan x="49.139" y="0">g</tspan><tspan x="0" y="21.6">A</tspan><tspan x="14.256" y="21.6">ction</tspan></text><text class="cls-6" transform="translate(485.885 472.56)">F<tspan x="11.934" y="0">allin</tspan><tspan x="54.629" y="0">g</tspan><tspan x="0" y="21.6">A</tspan><tspan x="14.256" y="21.6">ction</tspan></text><text class="cls-6" transform="translate(421.2 240.893)">Clima<tspan x="57.941" y="0">x</tspan></text><text class="cls-6" transform="translate(539.46 336.393)">R<tspan x="14.562" y="0">esolution</tspan></text><line class="cls-7" x1="383.929" y1="561.393" x2="494.839" y2="561.393"/><polygon points="488.212 569.572 486.848 568.108 494.072 561.395 486.848 554.68 488.212 553.215 497.008 561.395 488.212 569.572"/><line class="cls-7" x1="63.242" y1="309.593" x2="63.242" y2="255.861"/><polygon points="71.422 262.488 69.957 263.852 63.244 256.628 56.529 263.852 55.065 262.488 63.244 253.692 71.422 262.488"/><circle class="cls-8" cx="253.385" cy="397.393" r="4.5"/><circle class="cls-8" cx="153.385" cy="397.393" r="4.5"/><circle class="cls-8" cx="624.385" cy="397.393" r="4.5"/><circle class="cls-8" cx="557.552" cy="397.393" r="4.5"/><path class="cls-8" d="M459.007,312.969a4.5,4.5,0,0,1-1.123-8.858,31.636,31.636,0,0,1,7.869-1.153,33.4,33.4,0,0,1,6.822.694,4.5,4.5,0,0,1-1.844,8.81,24.333,24.333,0,0,0-4.979-.5,23.315,23.315,0,0,0-5.617.867A4.5,4.5,0,0,1,459.007,312.969Z"/><text class="cls-9" transform="translate(327.63 83.211)">MI<tspan x="28.384" y="0">DD</tspan><tspan x="60.607" y="0">LE</tspan></text><text class="cls-9" transform="translate(125.266 83.211)">BEGINNI<tspan x="93.999" y="0">N</tspan><tspan x="110.446" y="0">G</tspan></text><text class="cls-9" transform="translate(550.788 83.211)">END</text><text class="cls-10" transform="translate(294.278 152.211)"><tspan class="cls-11">A</tspan><tspan class="cls-11" x="11.928" y="0">C</tspan><tspan x="24.556" y="0">T</tspan><tspan class="cls-12" x="36.777" y="0"> II</tspan></text><text class="cls-10" transform="translate(388.006 152.211)"><tspan class="cls-11">A</tspan><tspan class="cls-11" x="11.928" y="0">C</tspan><tspan x="24.556" y="0">T</tspan><tspan class="cls-12" x="36.777" y="0"> III</tspan></text><text class="cls-10" transform="translate(162.396 152.211)"><tspan class="cls-11">A</tspan><tspan class="cls-11" x="11.928" y="0">C</tspan><tspan x="24.556" y="0">T</tspan><tspan class="cls-12" x="36.777" y="0"> I</tspan></text><text class="cls-10" transform="translate(488.461 152.211)"><tspan class="cls-11">A</tspan><tspan class="cls-11" x="11.928" y="0">C</tspan><tspan x="24.556" y="0">T</tspan><tspan class="cls-12" x="36.777" y="0"> I</tspan><tspan x="49.405" y="0">V</tspan></text><text class="cls-10" transform="translate(596.687 152.211)"><tspan class="cls-11">A</tspan><tspan class="cls-11" x="11.928" y="0">C</tspan><tspan x="24.556" y="0">T</tspan><tspan x="36.777" y="0"> </tspan><tspan x="41.622" y="0">V</tspan></text><line class="cls-5" x1="104.385" y1="132.393" x2="665.385" y2="132.393"/><rect class="cls-7" x="103.385" y="53.893" width="561" height="108"/><line class="cls-5" x1="572.885" y1="160.893" x2="572.885" y2="131.893"/><line class="cls-5" x1="464.885" y1="161.893" x2="464.885" y2="53.893"/><line class="cls-5" x1="271.885" y1="161.893" x2="271.885" y2="53.893"/><line class="cls-5" x1="370.885" y1="160.893" x2="370.885" y2="131.893"/><circle class="cls-13" cx="253.385" cy="397.393" r="4.5"/><circle class="cls-13" cx="153.385" cy="397.393" r="4.5"/><circle class="cls-13" cx="624.385" cy="397.393" r="4.5"/><circle class="cls-13" cx="557.552" cy="397.393" r="4.5"/><path class="cls-13" d="M459.007,312.969a4.5,4.5,0,0,1-1.123-8.858,31.636,31.636,0,0,1,7.869-1.153,33.4,33.4,0,0,1,6.822.694,4.5,4.5,0,0,1-1.844,8.81,24.333,24.333,0,0,0-4.979-.5,23.315,23.315,0,0,0-5.617.867A4.5,4.5,0,0,1,459.007,312.969Z"/><text class="cls-10" transform="translate(343.278 122.211)"><tspan class="cls-11">A</tspan><tspan class="cls-11" x="11.928" y="0">C</tspan><tspan x="24.556" y="0">T</tspan><tspan class="cls-12" x="36.777" y="0"> II</tspan></text><text class="cls-10" transform="translate(162.396 122.211)"><tspan class="cls-11">A</tspan><tspan class="cls-11" x="11.928" y="0">C</tspan><tspan x="24.556" y="0">T</tspan><tspan class="cls-12" x="36.777" y="0"> I</tspan></text><text class="cls-10" transform="translate(542.159 122.211)"><tspan class="cls-11">A</tspan><tspan class="cls-11" x="11.928" y="0">C</tspan><tspan x="24.556" y="0">T</tspan><tspan class="cls-12" x="36.777" y="0"> III</tspan></text><line class="cls-5" x1="664.385" y1="102.393" x2="103.385" y2="102.393"/><rect x="315.553" y="545.143" width="68.376" height="30"/><rect x="-0.852" y="358.299" width="128.188" height="30" transform="translate(-310.057 436.541) rotate(-90)"/><text class="cls-14" transform="translate(326.585 566.143)">T<tspan x="13.056" y="0">ime</tspan></text><text class="cls-14" transform="translate(68.775 423.661) rotate(-90)">Compl<tspan x="58.255" y="0">e</tspan><tspan x="67.456" y="0">xit</tspan><tspan x="89.711" y="0">y</tspan></text></svg>