<svg id="Layer_1" data-name="Layer 1" xmlns="http://www.w3.org/2000/svg" viewBox="0 0 739.463 605.97"><defs><style>.cls-1,.cls-10,.cls-2,.cls-3,.cls-4,.cls-9{fill:none;}.cls-1,.cls-15,.cls-2,.cls-3{stroke:#bfbfbf;}.cls-1,.cls-10,.cls-15,.cls-2,.cls-3,.cls-4,.cls-5,.cls-6,.cls-9{stroke-miterlimit:10;}.cls-2{stroke-dasharray:5.927 5.927;}.cls-3{stroke-dasharray:6.036 6.036;}.cls-10,.cls-4,.cls-5,.cls-6,.cls-9{stroke:#000;}.cls-4{stroke-width:8px;}.cls-15,.cls-5,.cls-6{fill:#fff;}.cls-5{stroke-width:4px;}.cls-13,.cls-7{font-size:20px;}.cls-11,.cls-13,.cls-7,.cls-8{font-family:Exo 2;font-weight:700;}.cls-8{font-size:16px;}.cls-11,.cls-14,.cls-8{letter-spacing:1px;}.cls-10,.cls-9{stroke-width:2px;}.cls-10{stroke-linecap:square;}.cls-11{font-size:14px;}.cls-12{white-space:pre;}.cls-13{letter-spacing:2px;}</style></defs><title>plot_diagram</title><line class="cls-1" x1="274.642" y1="481.393" x2="274.642" y2="478.393"/><line class="cls-2" x1="274.642" y1="472.466" x2="274.642" y2="36.856"/><line class="cls-1" x1="274.642" y1="33.893" x2="274.642" y2="30.893"/><line class="cls-1" x1="373.885" y1="481.393" x2="373.885" y2="478.393"/><line class="cls-3" x1="373.885" y1="472.357" x2="373.885" y2="113.228"/><line class="cls-1" x1="373.885" y1="110.21" x2="373.885" y2="107.21"/><line class="cls-1" x1="576.372" y1="481.393" x2="576.372" y2="478.393"/><line class="cls-3" x1="576.372" y1="472.357" x2="576.372" y2="113.228"/><line class="cls-1" x1="576.372" y1="110.21" x2="576.372" y2="107.21"/><line class="cls-1" x1="468.129" y1="481.393" x2="468.129" y2="478.393"/><line class="cls-2" x1="468.129" y1="472.466" x2="468.129" y2="36.856"/><line class="cls-1" x1="468.129" y1="33.893" x2="468.129" y2="30.893"/><path class="cls-4" d="M156.385,360.393h100c65,0,181.4-89.934,212.368-89.934,42.965,0,36.631,89.934,91.8,89.934h66.833"/><circle class="cls-5" cx="256.385" cy="360.393" r="4.5"/><circle class="cls-5" cx="156.385" cy="360.393" r="4.5"/><circle class="cls-5" cx="627.385" cy="360.393" r="4.5"/><circle class="cls-5" cx="560.552" cy="360.393" r="4.5"/><line class="cls-6" x1="508.885" y1="354.893" x2="508.885" y2="407.893"/><line class="cls-6" x1="448.885" y1="213.893" x2="458.885" y2="253.893"/><line class="cls-6" x1="601.885" y1="309.393" x2="601.885" y2="348.393"/><line class="cls-6" x1="327.885" y1="272.893" x2="327.885" y2="319.893"/><line class="cls-6" x1="185.885" y1="375.893" x2="185.885" y2="404.893"/><text class="cls-7" transform="translate(155.856 430.56)">Exposition</text><text class="cls-7" transform="translate(296.885 233.393)">Rising<tspan x="0" y="24">Action</tspan></text><text class="cls-7" transform="translate(490.885 435.56)">F<tspan x="10.68" y="0">alling</tspan><tspan x="0" y="24">Action</tspan></text><text class="cls-7" transform="translate(388.754 198.56)">Climax</text><text class="cls-7" transform="translate(594.866 293.426)">R<tspan x="12.76" y="0">esolution</tspan></text><text class="cls-8" transform="translate(126.821 545.393)">TIME</text><line class="cls-9" x1="190.385" y1="540.893" x2="301.296" y2="540.893"/><polygon points="294.669 549.072 293.305 547.608 300.528 540.895 293.305 534.18 294.669 532.715 303.465 540.895 294.669 549.072"/><line class="cls-9" x1="51.385" y1="342.893" x2="51.385" y2="289.16"/><polygon points="59.565 295.787 58.1 297.151 51.387 289.928 44.672 297.151 43.207 295.787 51.387 286.991 59.565 295.787"/><line class="cls-10" x1="51.385" y1="560.893" x2="51.385" y2="495.893"/><line class="cls-10" x1="105.385" y1="540.893" x2="31.385" y2="540.893"/><path class="cls-5" d="M462.007,275.969a4.5,4.5,0,0,1-1.123-8.858,31.636,31.636,0,0,1,7.869-1.153,33.4,33.4,0,0,1,6.822.694,4.5,4.5,0,0,1-1.844,8.81,24.333,24.333,0,0,0-4.979-.5,23.315,23.315,0,0,0-5.617.867A4.5,4.5,0,0,1,462.007,275.969Z"/><text class="cls-8" transform="translate(56.918 474.68) rotate(-90)">C<tspan x="10.688" y="0">OMPLEXIT</tspan><tspan x="99.583" y="0">Y</tspan></text><text class="cls-11" transform="translate(352.5 97.211)">A<tspan x="10.22" y="0">C</tspan><tspan x="19.712" y="0">T</tspan><tspan class="cls-12" x="29.078" y="0"> II</tspan></text><text class="cls-11" transform="translate(170.668 97.211)">A<tspan x="10.22" y="0">C</tspan><tspan x="19.712" y="0">T</tspan><tspan class="cls-12" x="29.078" y="0"> I</tspan></text><text class="cls-11" transform="translate(552.335 97.211)">A<tspan x="10.22" y="0">C</tspan><tspan x="19.712" y="0">T</tspan><tspan class="cls-12" x="29.078" y="0"> III</tspan></text><text class="cls-13" transform="translate(332.845 58.211)">MIDDLE</text><text class="cls-13" transform="translate(130.755 58.211)">B<tspan class="cls-14" x="14.56" y="0">E</tspan><tspan x="27.8" y="0">GINNING</tspan></text><text class="cls-13" transform="translate(554.832 58.211)">END</text><text class="cls-11" transform="translate(303.5 127.211)">A<tspan x="10.22" y="0">C</tspan><tspan x="19.712" y="0">T</tspan><tspan class="cls-12" x="29.078" y="0"> II</tspan></text><text class="cls-11" transform="translate(398.181 127.211)">A<tspan x="10.22" y="0">C</tspan><tspan x="19.712" y="0">T</tspan><tspan class="cls-12" x="29.078" y="0"> III</tspan></text><text class="cls-11" transform="translate(170.668 127.211)">A<tspan x="10.22" y="0">C</tspan><tspan x="19.712" y="0">T</tspan><tspan class="cls-12" x="29.078" y="0"> I</tspan></text><text class="cls-11" transform="translate(497.747 127.211)">A<tspan x="10.22" y="0">C</tspan><tspan x="19.712" y="0">T</tspan><tspan class="cls-12" x="29.078" y="0"> I</tspan><tspan x="38.863" y="0">V</tspan></text><text class="cls-11" transform="translate(604.895 127.211)">A<tspan x="10.22" y="0">C</tspan><tspan x="19.712" y="0">T V</tspan></text><line class="cls-15" x1="108.385" y1="107.393" x2="668.385" y2="107.393"/><line class="cls-15" x1="108.385" y1="136.393" x2="668.385" y2="136.393"/><line class="cls-15" x1="108.385" y1="78.393" x2="668.385" y2="78.393"/></svg>